<?xml version="1.0" standalone="no"?>
<!DOCTYPE svg PUBLIC "-//W3C//DTD SVG 20010904//EN"
 "http://www.w3.org/TR/2001/REC-SVG-20010904/DTD/svg10.dtd">
<svg version="1.0" xmlns="http://www.w3.org/2000/svg"
 width="260.000000pt" height="260.000000pt" viewBox="0 0 260.000000 260.000000"
 preserveAspectRatio="xMidYMid meet">
<metadata>
Created by potrace 1.14, written by Peter Selinger 2001-2017
</metadata>
<g transform="translate(0.000000,260.000000) scale(0.100000,-0.100000)"
fill="#000000" stroke="none">
<path d="M1153 2584 c5 -8 -29 -12 -120 -13 -84 0 -131 -5 -141 -13 -13 -10
-14 -10 -8 0 4 6 2 12 -3 12 -6 0 -11 -6 -11 -12 0 -10 -3 -9 -9 1 -5 7 -10 9
-12 3 -2 -6 -31 -13 -64 -16 -120 -12 -160 -18 -165 -27 -3 -5 -20 -9 -37 -11
-17 -1 -29 -6 -27 -10 3 -4 -1 -8 -8 -8 -19 0 -68 -23 -68 -32 0 -5 -9 -8 -21
-8 -11 0 -17 -4 -14 -10 6 -10 -7 -14 -34 -11 -7 2 -11 -1 -8 -6 3 -4 -1 -13
-8 -20 -11 -10 -15 -10 -18 0 -4 9 -6 9 -6 0 -1 -7 -8 -13 -16 -13 -8 0 -15
-4 -15 -10 0 -5 -6 -10 -13 -10 -7 0 -19 -9 -27 -20 -8 -11 -20 -20 -27 -20
-7 0 -13 -4 -13 -10 0 -5 -7 -10 -15 -10 -8 0 -15 -4 -15 -10 0 -5 -7 -10 -15
-10 -8 0 -15 -4 -15 -10 0 -5 -7 -10 -15 -10 -8 0 -15 -7 -15 -16 0 -9 -5 -12
-12 -8 -8 5 -7 0 2 -11 9 -11 10 -16 3 -11 -8 4 -13 1 -13 -8 0 -9 -7 -16 -15
-16 -8 0 -15 -6 -15 -14 0 -8 -5 -18 -12 -22 -7 -4 -8 -3 -4 4 4 7 2 12 -3 12
-6 0 -11 -11 -11 -24 0 -14 -5 -28 -12 -32 -7 -4 -8 -3 -4 4 4 7 2 12 -3 12
-6 0 -11 -17 -12 -37 0 -21 -3 -32 -6 -25 -15 38 -22 -4 -22 -140 0 -98 3
-147 9 -138 6 9 10 10 10 3 0 -6 -4 -15 -10 -18 -6 -4 -10 -96 -10 -243 0
-157 4 -232 10 -222 6 9 10 10 10 3 0 -6 -4 -14 -9 -18 -6 -3 -9 -14 -8 -25 1
-10 5 -16 9 -14 5 3 6 9 3 14 -3 5 -2 11 2 13 5 3 9 -11 10 -31 1 -20 9 -39
18 -44 8 -5 15 -14 15 -21 0 -7 9 -18 20 -25 12 -7 18 -18 13 -25 -5 -9 -3 -9
8 0 13 11 16 6 18 -38 1 -38 -1 -49 -10 -43 -9 5 -9 3 -3 -7 11 -18 13 -69 2
-69 -5 0 -6 14 -3 30 3 17 2 30 -2 30 -5 0 -9 -25 -10 -55 -1 -40 2 -53 10
-48 8 4 8 1 -1 -9 -8 -10 -11 -41 -10 -90 2 -63 5 -73 15 -59 11 13 12 6 8
-43 -4 -52 -3 -57 11 -45 13 11 15 11 14 -2 -5 -34 1 -59 15 -59 8 0 15 -9 15
-20 0 -11 7 -20 15 -20 9 0 15 -9 15 -21 0 -15 5 -19 15 -15 10 3 15 -1 15
-13 0 -11 11 -29 25 -42 13 -13 25 -30 25 -36 0 -7 7 -13 15 -13 8 0 15 -9 15
-20 0 -11 7 -20 15 -20 8 0 15 -6 15 -14 0 -8 5 -18 12 -22 7 -5 8 -3 3 6 -5
9 -4 11 3 6 7 -4 12 -16 12 -27 0 -10 5 -19 10 -19 6 0 10 -9 10 -20 0 -11 5
-20 11 -20 5 0 7 5 3 12 -4 7 -3 8 4 4 7 -4 12 -13 12 -19 0 -7 9 -18 20 -25
12 -7 18 -18 13 -25 -4 -7 2 -5 12 3 11 9 16 10 11 3 -4 -8 -2 -13 4 -13 6 0
8 -4 5 -10 -3 -5 -1 -10 5 -10 14 0 40 -25 40 -39 0 -6 8 -8 18 -4 9 3 14 2
10 -2 -5 -5 2 -13 15 -20 12 -6 21 -17 20 -23 -2 -6 4 -9 12 -6 10 4 15 0 16
-12 0 -12 3 -14 6 -6 4 10 9 8 20 -7 8 -12 23 -21 34 -21 10 0 19 -4 19 -10 0
-5 9 -10 21 -10 11 0 17 -4 14 -10 -6 -10 15 -14 44 -11 7 2 10 -2 6 -8 -4 -7
5 -11 24 -11 17 0 31 -5 31 -11 0 -8 6 -7 17 2 11 10 14 10 9 2 -5 -10 8 -13
53 -14 169 -3 272 1 267 9 -2 4 18 9 46 10 29 1 54 6 58 11 3 6 20 11 37 13
17 1 29 6 27 10 -3 4 6 8 20 8 14 0 26 5 26 10 0 6 12 10 26 10 15 0 34 8 43
18 9 9 27 19 41 20 14 2 27 8 28 13 2 5 10 9 18 9 8 0 14 5 14 10 0 6 9 10 21
10 13 0 23 8 26 20 5 17 8 18 21 8 12 -10 14 -10 8 0 -4 7 -2 12 4 12 6 0 8 4
5 10 -3 6 1 7 9 4 11 -4 16 0 16 11 0 15 2 15 16 5 8 -8 14 -9 13 -4 -4 23 3
34 22 34 11 0 18 4 15 8 -3 5 6 15 19 22 14 7 25 17 25 22 0 4 7 8 15 8 8 0
15 5 15 10 0 6 7 10 15 10 8 0 15 9 15 20 0 13 5 18 15 13 9 -3 15 -2 14 3 -4
21 2 35 11 29 6 -3 10 1 10 9 0 9 7 16 15 16 8 0 15 7 15 15 0 9 6 12 15 8 9
-3 15 -2 14 3 -4 22 2 34 16 34 8 0 15 5 15 10 0 6 6 10 13 10 7 0 20 18 30
40 9 22 19 40 23 40 3 0 2 -5 -1 -10 -3 -5 -1 -10 4 -10 6 0 11 9 11 20 0 11
6 19 12 18 7 -2 14 7 16 20 3 17 7 21 16 13 9 -8 13 -7 14 4 1 8 3 22 4 30 1
12 4 12 17 3 9 -7 13 -8 8 -3 -4 4 0 19 9 33 11 17 12 22 3 17 -11 -6 -12 -5
-1 6 6 7 12 22 12 32 0 12 5 17 14 14 10 -4 14 9 15 59 1 52 -1 64 -14 64 -21
0 -19 22 5 43 11 9 20 12 20 7 0 -6 5 -10 10 -10 6 0 10 9 10 20 0 11 6 20 14
20 8 0 17 11 20 25 4 14 11 23 15 20 5 -3 11 -1 13 5 1 5 26 10 55 11 29 1 50
5 48 9 -2 4 2 7 10 7 8 0 12 -4 9 -9 -3 -4 0 -8 5 -8 6 0 11 5 11 10 0 6 18
10 40 10 22 0 40 5 40 11 0 5 5 7 11 4 6 -4 13 2 16 14 3 12 9 21 14 21 5 0 9
16 9 35 0 21 -5 35 -12 35 -9 0 -8 4 2 10 8 5 10 10 4 10 -6 0 -14 14 -18 31
-3 17 -10 28 -16 24 -5 -3 -10 3 -10 13 0 11 -7 22 -15 26 -8 3 -15 12 -15 20
0 7 -7 16 -15 20 -10 4 -15 20 -15 51 0 29 -4 45 -12 45 -10 0 -10 2 0 8 10 7
10 14 -2 37 -8 16 -13 32 -10 37 3 4 -2 8 -10 8 -15 0 -21 12 -17 34 1 5 -5 4
-13 -4 -14 -10 -16 -10 -16 5 0 11 -5 15 -15 11 -8 -3 -15 -1 -15 4 0 6 -5 10
-11 10 -27 0 -39 30 -39 102 0 45 -5 79 -12 87 -10 11 -10 13 0 7 7 -5 12 -1
12 9 0 10 -5 13 -12 9 -8 -5 -8 -3 -2 7 11 17 13 70 3 63 -4 -2 -5 -17 -3 -31
3 -15 2 -24 -2 -21 -3 4 -8 47 -10 95 -5 111 -8 126 -22 131 -7 2 -12 15 -12
28 0 15 -6 24 -15 24 -8 0 -15 9 -15 20 0 11 -4 20 -10 20 -5 0 -10 7 -10 15
0 9 -6 12 -15 9 -14 -6 -20 7 -16 30 1 5 -5 3 -14 -4 -9 -7 -15 -9 -14 -4 4
21 -2 35 -12 29 -6 -4 -13 2 -16 14 -3 12 -10 21 -17 21 -6 0 -17 9 -24 20 -7
11 -19 20 -28 20 -8 0 -12 5 -9 10 6 9 -8 14 -28 11 -5 -1 -6 3 -2 9 3 5 1 10
-5 10 -6 0 -8 5 -5 10 4 6 3 10 -2 9 -22 -4 -34 2 -27 14 5 7 0 6 -11 -3 -10
-8 -16 -10 -12 -4 5 9 -34 54 -48 54 -3 0 -12 0 -21 0 -8 0 -13 3 -11 8 3 4
-1 12 -8 19 -11 10 -15 10 -18 0 -4 -9 -6 -9 -6 1 -1 6 -7 12 -14 12 -7 0 -19
9 -27 20 -8 11 -22 20 -32 20 -18 0 -58 19 -68 32 -3 3 -14 8 -25 10 -11 1
-23 7 -26 12 -4 5 -18 9 -33 9 -14 0 -23 3 -20 8 3 5 -2 9 -11 9 -10 0 -14 -5
-9 -12 6 -10 4 -10 -7 0 -8 7 -42 12 -89 12 -42 0 -80 3 -84 7 -10 11 -37 12
-30 2 3 -5 -7 -9 -23 -9 -22 0 -25 2 -13 10 12 8 11 9 -5 7 -11 -2 -29 -8 -39
-12 -13 -6 -21 -4 -24 3 -2 7 -8 12 -13 12 -6 0 -7 -4 -4 -10 4 -6 -6 -10 -22
-10 -21 0 -24 3 -13 10 12 7 10 9 -7 7 -12 0 -19 -5 -17 -9 8 -13 -21 -9 -35
5 -8 7 -11 7 -8 1z m-1003 -1764 c0 -5 -5 -10 -11 -10 -5 0 -7 5 -4 10 3 6 8
10 11 10 2 0 4 -4 4 -10z"/>
<path d="M2315 1911 c-3 -5 -2 -12 3 -15 5 -3 9 1 9 9 0 17 -3 19 -12 6z"/>
</g>
</svg>
